<mxfile host="app.diagrams.net" modified="2023-12-11T08:04:07.853Z" agent="Mozilla/5.0 (Windows NT 10.0; Win64; x64; rv:109.0) Gecko/20100101 Firefox/118.0" version="22.1.7" etag="Wuur-4r9ze0J1mXJbgAc" type="github">
  <diagram name="第 1 页" id="mPpCp-LodM2tpt0Is_7j">
    <mxGraphModel>
      <root>
        <mxCell id="0" />
        <mxCell id="1" parent="0" />
      </root>
    </mxGraphModel>
  </diagram>
</mxfile>
